<?xml version="1.0" encoding="utf-8"?>
<!-- Generator: Adobe Illustrator 18.0.0, SVG Export Plug-In . SVG Version: 6.00 Build 0)  -->
<!DOCTYPE svg PUBLIC "-//W3C//DTD SVG 1.1//EN" "http://www.w3.org/Graphics/SVG/1.1/DTD/svg11.dtd">
<svg version="1.1" id="Layer_1" xmlns="http://www.w3.org/2000/svg" xmlns:xlink="http://www.w3.org/1999/xlink" x="0px" y="0px"
	 viewBox="0 0 153 31.1" enable-background="new 0 0 153 31.1" xml:space="preserve">
<g>
	<path fill="#FFDE17" d="M127.8,30.8c-7.7,0-11.4-7.6-14.7-14.3c-3-6.2-5.9-12-11.1-12c-5.2,0-8.1,5.8-11.1,12
		c-3.3,6.7-7,14.3-14.7,14.3c-7.7,0-11.4-7.6-14.7-14.3c-3-6.2-5.9-12-11.1-12s-8.1,5.8-11.1,12c-3.3,6.7-7,14.3-14.7,14.3
		S13.2,23.2,9.9,16.5c-3-6.2-5.9-12-10.9-12V0.4c7.1,0,11.3,7.6,14.6,14.3c3,6.2,5.8,12,11,12c5.2,0,8-5.8,11.1-12
		c3.3-6.7,7-14.3,14.7-14.3c7.7,0,11.4,7.6,14.7,14.3c3,6.2,5.9,12,11.1,12s8.1-5.8,11.1-12C90.5,8,94.3,0.4,102,0.4
		c7.7,0,11.4,7.6,14.7,14.3c3,6.2,5.9,12,11.1,12c5.2,0,8.2-5.8,11.3-12C142.4,8,145.9,0.4,154,0.4v4.1c-5.1,0-8.2,5.8-11.3,12
		C139.4,23.2,135.5,30.8,127.8,30.8z"/>
</g>
</svg>
