<?xml version="1.0" encoding="utf-8"?>
<!-- Generator: Adobe Illustrator 18.0.0, SVG Export Plug-In . SVG Version: 6.00 Build 0)  -->
<!DOCTYPE svg PUBLIC "-//W3C//DTD SVG 1.1//EN" "http://www.w3.org/Graphics/SVG/1.1/DTD/svg11.dtd">
<svg version="1.1" id="Layer_1" xmlns="http://www.w3.org/2000/svg" xmlns:xlink="http://www.w3.org/1999/xlink" x="0px" y="0px"
	 viewBox="0 0 69.4 69.8" enable-background="new 0 0 69.4 69.8" xml:space="preserve">
<g>
	<path fill="#FFFFFF" d="M29.7,28.5c-1.4,0-2.1,1.4-2.1,2.6s0.6,2.6,2.1,2.6s2.1-1.4,2.1-2.6S31.1,28.5,29.7,28.5z"/>
	<path fill="#FFFFFF" d="M48.5,46c-1.2,0-1.9,1-2.1,2h4.1C50.5,47,49.8,46,48.5,46z"/>
	<path fill="#FFFFFF" d="M29.4,46.5c-1.4,0-2.1,1.4-2.1,2.6s0.6,2.6,2.1,2.6c1.4,0,2-1.4,2-2.6S30.8,46.5,29.4,46.5z"/>
	<path fill="#FFFFFF" d="M34.7,1.6C16.3,1.6,1.4,16.5,1.4,34.9s14.9,33.3,33.3,33.3c18.4,0,33.3-14.9,33.3-33.3S53.1,1.6,34.7,1.6z
		 M21.2,51.7c0.6,0,1.6-0.5,1.9-0.5c0.6,0,1.1,0.5,1.1,1.1c0,1.3-2.2,1.8-3.2,1.8c-2.8,0-4.6-2.3-4.6-5c0-2.6,1.9-5,4.6-5
		c1,0,3.2,0.4,3.2,1.6c0,0.5-0.4,1.2-1,1.2c-0.6,0-1.2-0.5-2.1-0.5c-1.5,0-2.2,1.3-2.2,2.6C19,50.4,19.8,51.7,21.2,51.7z M20.3,38.8
		c-0.2,0.5-0.6,1-1.2,1c-0.9,0-1.4-0.6-1.4-1.1c0-0.3,0.1-0.5,0.2-0.8l1.1-2.8L16.1,28c-0.1-0.2-0.1-0.4-0.1-0.7
		c0-0.6,0.7-1.1,1.2-1.1c0.6,0,1.1,0.3,1.3,0.9l1.8,4.9l1.9-4.9c0.2-0.6,0.7-0.9,1.3-0.9c0.5,0,1.2,0.5,1.2,1.1c0,0.3,0,0.5-0.1,0.7
		L20.3,38.8z M34.3,52.3c0,0.7-0.2,1.7-1.4,1.7c-0.8,0-1.1-0.4-1.3-1.1c-0.7,0.8-1.5,1.2-2.5,1.2c-2.4,0-4.3-2.1-4.3-5
		c0-2.8,1.9-5,4.3-5c1,0,1.9,0.4,2.5,1.2c0.1-0.6,0.8-1.1,1.4-1.1c1.2,0,1.4,1,1.4,1.7V52.3z M29.7,36.1c-2.8,0-4.6-2.3-4.6-5
		c0-2.6,1.9-5,4.6-5s4.6,2.4,4.6,5C34.4,33.8,32.5,36.1,29.7,36.1z M35.3,27.6c0-0.9,0.6-1.4,1.4-1.4c0.7,0,1.1,0.4,1.2,1
		c0.5-0.7,1.5-1.1,2.7-1.1c2,0,3.7,1.3,3.7,3.5v5c0,0.9-0.7,1.4-1.5,1.4s-1.5-0.6-1.5-1.4V30c0-1.2-0.6-1.8-1.5-1.8
		c-1.1,0-1.5,0.8-1.5,1.8v4.5c0,0.9-0.7,1.4-1.5,1.4c-0.8,0-1.5-0.6-1.5-1.4V27.6z M42.5,54.1c-0.5,0-0.8-0.5-1.2-1L38.1,49h0.2v3.6
		c0,0.9-0.7,1.4-1.5,1.4c-0.8,0-1.5-0.6-1.5-1.4V41.5c0-0.9,0.7-1.4,1.5-1.4c0.8,0,1.5,0.6,1.5,1.4v6l2.7-2.8
		c0.4-0.4,0.8-0.6,1.1-0.6c0.6,0,1.1,0.6,1.1,1.2c0,0.4-0.1,0.7-0.5,1l-2.3,2.1l3,3.6c0.2,0.3,0.3,0.6,0.3,0.9
		C43.7,53.6,43.2,54.1,42.5,54.1z M49,51.9c1.3,0,2.3-1.1,2.9-1.1c0.6,0,1.1,0.6,1.1,1.1c0,1.1-2.3,2.2-4.2,2.2
		c-2.9,0-4.9-2.1-4.9-5c0-2.6,1.9-5,4.6-5c2.8,0,4.7,2.6,4.7,4.7c0,0.8-0.3,1.2-1.1,1.2h-5.5C46.7,51,47.8,51.9,49,51.9z M53.3,28
		L49,38.8c-0.2,0.5-0.6,1-1.2,1c-0.9,0-1.4-0.6-1.4-1.1c0-0.3,0.1-0.5,0.2-0.8l1.1-2.8L44.8,28c-0.1-0.2-0.1-0.4-0.1-0.7
		c0-0.6,0.7-1.1,1.2-1.1c0.6,0,1.1,0.3,1.3,0.9L49,32l1.9-4.9c0.2-0.6,0.7-0.9,1.3-0.9c0.5,0,1.2,0.5,1.2,1.1
		C53.4,27.6,53.4,27.8,53.3,28z"/>
</g>
</svg>
